<svg width="71" height="57" viewBox="0 0 71 57" fill="none" xmlns="http://www.w3.org/2000/svg">
<path d="M0 1.57018C0 0.702999 0.702999 0 1.57018 0H32.9737C33.8407 0 34.5439 0.702999 34.5439 1.57018C34.5439 2.43735 33.8407 3.14035 32.9737 3.14035H1.57018C0.702999 3.14035 0 2.43735 0 1.57018Z" fill="black"/>
<path fill-rule="evenodd" clip-rule="evenodd" d="M40.8245 1.57018C40.8245 0.702999 41.5276 0 42.3947 0C51.9338 0 60.9999 4.46096 60.9999 14C60.9999 15 59.867 19 58.9999 19C58.1329 19 55.9999 15.5 55.9999 13.5C55.9999 6.22607 51.0307 4.00768 43.9649 3.22659V43.9649C43.9649 44.1128 43.9445 44.256 43.9062 44.392C43.9451 44.7676 43.9649 45.1491 43.9649 45.5351C43.9649 51.6054 39.0439 56.5263 32.9736 56.5263C26.9034 56.5263 21.9824 51.6054 21.9824 45.5351C21.9824 39.4648 26.9034 34.5439 32.9736 34.5439C36.049 34.5439 38.8295 35.8069 40.8245 37.8428V1.57018ZM25.1228 45.5351C25.1228 41.1992 28.6378 37.6842 32.9736 37.6842C37.3095 37.6842 40.8245 41.1992 40.8245 45.5351C40.8245 49.871 37.3095 53.386 32.9736 53.386C28.6378 53.386 25.1228 49.871 25.1228 45.5351Z" fill="black"/>
<path d="M1.57018 9.42108C0.702999 9.42108 0 10.1241 0 10.9913C0 11.8584 0.702999 12.5614 1.57018 12.5614H32.9737C33.8407 12.5614 34.5439 11.8584 34.5439 10.9913C34.5439 10.1241 33.8407 9.42108 32.9737 9.42108H1.57018Z" fill="black"/>
<path d="M0 20.4123C0 19.5451 0.702999 18.8421 1.57018 18.8421H17.2719C18.1391 18.8421 18.8421 19.5451 18.8421 20.4123C18.8421 21.2793 18.1391 21.9825 17.2719 21.9825H1.57018C0.702999 21.9825 0 21.2793 0 20.4123Z" fill="black"/>
<path d="M61 14V40H56V14H61Z" fill="black"/>
<path d="M56 39H71V44H56V39Z" fill="black"/>
</svg>
