<svg width="123" height="57" viewBox="0 0 123 57" fill="none" xmlns="http://www.w3.org/2000/svg">
<path d="M0 1.57018C0 0.702999 0.702999 0 1.57018 0H32.9737C33.8407 0 34.5439 0.702999 34.5439 1.57018C34.5439 2.43735 33.8407 3.14035 32.9737 3.14035H1.57018C0.702999 3.14035 0 2.43735 0 1.57018Z" fill="white"/>
<path fill-rule="evenodd" clip-rule="evenodd" d="M40.8246 1.57018C40.8246 0.702999 41.5277 0 42.3948 0C51.9339 0 61 4.46096 61 14C61 15 59.8671 19 59 19C58.1329 19 56 15.5 56 13.5C56 6.22607 51.0307 4.00768 43.9649 3.22659V43.9649C43.9649 44.1128 43.9445 44.256 43.9062 44.392C43.9452 44.7676 43.9649 45.1491 43.9649 45.5351C43.9649 51.6054 39.044 56.5263 32.9737 56.5263C26.9034 56.5263 21.9825 51.6054 21.9825 45.5351C21.9825 39.4648 26.9034 34.5439 32.9737 34.5439C36.0491 34.5439 38.8295 35.8069 40.8246 37.8428V1.57018ZM25.1228 45.5351C25.1228 41.1992 28.6378 37.6842 32.9737 37.6842C37.3096 37.6842 40.8246 41.1992 40.8246 45.5351C40.8246 49.871 37.3096 53.386 32.9737 53.386C28.6378 53.386 25.1228 49.871 25.1228 45.5351Z" fill="white"/>
<path d="M1.57018 9.42108C0.702999 9.42108 0 10.1241 0 10.9913C0 11.8584 0.702999 12.5614 1.57018 12.5614H32.9737C33.8407 12.5614 34.5439 11.8584 34.5439 10.9913C34.5439 10.1241 33.8407 9.42108 32.9737 9.42108H1.57018Z" fill="white"/>
<path d="M0 20.4123C0 19.5451 0.702999 18.8421 1.57018 18.8421H17.2719C18.1391 18.8421 18.8421 19.5451 18.8421 20.4123C18.8421 21.2793 18.1391 21.9825 17.2719 21.9825H1.57018C0.702999 21.9825 0 21.2793 0 20.4123Z" fill="white"/>
<path d="M110.11 36.6673C110.355 38.3347 111.967 39.6899 114.801 39.6899C116.167 39.6899 118.057 39.3768 119.281 38.3347L122.118 41.463C120.261 43.2699 117.287 44 114.696 44C108.431 44 105 40.3514 105 34.8613C105 29.6486 108.536 26 114.171 26C120.051 26 123.902 29.6486 122.817 36.6682H110.11V36.6673ZM118.302 33.0188C118.198 31.1425 116.273 30.2737 114.172 30.2737C112.142 30.2737 110.601 31.3159 110.111 33.0188H118.302Z" fill="white"/>
<path d="M95.7132 26.4278L96.1002 28.3523C97.2623 26.7133 98.8097 26 100.743 26C102.398 26 103.769 26.4989 105 27.6044L102.89 31.6677C102.046 31.0621 101.165 30.7766 100.11 30.7766C97.9302 30.7766 96.0651 32.2022 96.0651 34.8399V44H91V26.4278H95.7132Z" fill="white"/>
<path d="M61 14V40H56V14H61Z" fill="white"/>
<path d="M56 39H71V44H56V39Z" fill="white"/>
<rect x="73" y="28.037" width="5.07801" height="13.7994" transform="rotate(-23.6502 73 28.037)" fill="white"/>
<rect x="85.1074" y="25.9895" width="5.07801" height="24.9104" transform="rotate(28.2015 85.1074 25.9895)" fill="white"/>
</svg>
